# Blender 4.0.2
# www.blender.org
mtllib Spiked_Club.mtl
o Spiked_Club_Cylinder
v -0.027596 0.001434 0.010748
v -0.044914 1.120344 0.019316
v -0.019393 0.001405 -0.022040
v -0.030171 1.120292 -0.039609
v 0.014325 0.001286 -0.024370
v 0.030426 1.120079 -0.043796
v 0.026961 0.001242 0.006978
v 0.053134 1.119999 0.012541
v 0.001052 0.001333 0.028682
v 0.006571 1.120163 0.051547
v -0.046263 0.037133 0.018323
v -0.032278 0.037083 -0.037572
v 0.025202 0.036881 -0.041543
v 0.046741 0.036805 0.011896
v 0.002574 0.036961 0.048895
v -0.028255 0.123091 0.011186
v -0.019717 0.123061 -0.022939
v 0.015376 0.122938 -0.025363
v 0.028526 0.122891 0.007263
v 0.001561 0.122986 0.029852
v -0.034129 0.489334 0.014074
v -0.023387 0.489296 -0.028859
v 0.020763 0.489141 -0.031910
v 0.037308 0.489083 0.009137
v 0.003383 0.489202 0.037557
v -0.063872 0.721157 0.026506
v -0.043646 0.720976 -0.054100
v 0.038993 0.720685 -0.059796
v 0.070091 0.720578 0.017175
v 0.006460 0.720799 0.070353
v -0.086357 1.061586 0.035897
v -0.059003 1.061358 -0.073698
v 0.053869 1.060949 -0.081520
v 0.096053 1.060930 0.023319
v 0.009436 1.061106 0.095968
v -0.054416 0.950496 -0.067808
v -0.049282 0.840579 -0.061266
v 0.049367 0.950131 -0.074983
v 0.044418 0.840250 -0.067738
v 0.088222 0.949998 0.021460
v 0.079542 0.840125 0.019383
v 0.008511 0.950275 0.088262
v 0.007532 0.840379 0.079720
v -0.072101 0.840659 0.029879
v -0.079638 0.950588 0.033031
v -0.030885 0.993927 0.080221
v -0.031182 1.021238 0.081770
v -0.056048 1.021326 0.066234
v -0.055042 0.994012 0.065069
v 0.068553 0.993562 0.056540
v 0.069948 1.020856 0.057503
v 0.047418 1.020962 0.076343
v 0.046739 0.993654 0.074854
v 0.076876 0.993508 -0.045060
v 0.078003 1.020815 -0.046435
v 0.089194 1.020779 -0.018626
v 0.087302 0.993498 -0.019259
v -0.017567 0.993880 -0.084547
v -0.017984 1.021192 -0.086060
v 0.011281 1.021089 -0.088080
v 0.010866 0.993780 -0.086514
v -0.084018 0.994117 -0.007458
v -0.085614 1.021418 -0.006497
v -0.078314 1.021367 -0.035733
v -0.077277 0.994052 -0.034310
v -0.069788 0.777355 -0.007108
v -0.071332 0.801157 -0.005654
v -0.065408 0.801107 -0.029390
v -0.064654 0.777291 -0.027545
v -0.077128 0.887236 -0.007509
v -0.078967 0.916080 -0.005891
v -0.072220 0.916005 -0.032942
v -0.071256 0.887142 -0.030857
v -0.014109 0.777151 -0.070154
v -0.014829 0.800970 -0.071504
v 0.008617 0.800888 -0.073120
v 0.007899 0.777073 -0.071679
v -0.015927 0.887013 -0.077588
v -0.016496 0.915879 -0.079259
v 0.010011 0.915786 -0.081086
v 0.009444 0.886923 -0.079345
v 0.063781 0.776833 -0.036520
v 0.064550 0.800641 -0.038270
v 0.073622 0.800623 -0.015710
v 0.071734 0.776847 -0.016864
v 0.070627 0.886624 -0.040770
v 0.071622 0.915477 -0.042768
v 0.081953 0.915474 -0.017075
v 0.079720 0.886663 -0.018312
v 0.055832 0.776870 0.047469
v 0.057508 0.800648 0.047958
v 0.039368 0.800779 0.063132
v 0.039048 0.776964 0.061553
v 0.062311 0.886656 0.052239
v 0.064199 0.915466 0.052968
v 0.043640 0.915667 0.070166
v 0.043019 0.886805 0.068429
v -0.026614 0.777195 0.066095
v -0.026571 0.801012 0.067685
v -0.046514 0.801068 0.055236
v -0.045311 0.777261 0.054349
v -0.028828 0.887058 0.073399
v -0.029033 0.915923 0.075182
v -0.051667 0.915915 0.061044
v -0.050289 0.887087 0.059927
v -0.071664 1.012675 0.118678
v 0.092540 1.012097 0.107331
v 0.132491 1.011956 -0.052343
v -0.007022 1.012447 -0.139681
v -0.133197 1.012892 -0.033984
v -0.117562 0.783904 -0.029871
v -0.125773 0.901805 -0.032029
v -0.006660 0.783514 -0.122774
v -0.006858 0.901386 -0.131645
v 0.115966 0.783082 -0.046008
v 0.124628 0.900923 -0.049332
v 0.080851 0.783206 0.094340
v 0.086976 0.901056 0.101156
v -0.063477 0.783714 0.104313
v -0.067781 0.901601 0.111850
vn -0.3598 0.8263 -0.4333
vn -0.5210 0.8270 0.2113
vn 0.0418 0.8249 0.5637
vn 0.5509 0.8232 0.1372
vn 0.3026 0.8240 -0.4790
vn -0.5805 -0.7803 0.2329
vn -0.4027 -0.7809 -0.4775
vn 0.3278 -0.7835 -0.5280
vn 0.6015 -0.7844 0.1512
vn 0.0402 -0.7825 0.6214
vn 0.0679 -0.1324 0.9889
vn -0.9198 -0.1289 0.3706
vn 0.9611 -0.1355 0.2406
vn 0.5255 -0.1340 -0.8402
vn -0.6370 -0.1299 -0.7599
vn 0.0689 0.1029 0.9923
vn -0.9222 0.1064 0.3718
vn 0.9653 0.0998 0.2414
vn 0.5282 0.1013 -0.8431
vn -0.6384 0.1054 -0.7625
vn 0.0685 -0.0832 0.9942
vn -0.9245 -0.0797 0.3727
vn 0.9665 -0.0863 0.2419
vn 0.5284 -0.0847 -0.8447
vn -0.6402 -0.0806 -0.7640
vn 0.0672 -0.1806 0.9813
vn -0.9125 -0.1775 0.3687
vn 0.9534 -0.1840 0.2392
vn 0.5207 -0.1825 -0.8340
vn -0.6317 -0.1786 -0.7544
vn -0.7637 0.2884 0.5777
vn -0.7419 -0.3637 0.5634
vn -0.5306 -0.0055 0.8476
vn 0.8471 0.2818 0.4505
vn 0.2981 0.2822 0.9119
vn 0.6404 0.0774 0.7641
vn 0.8309 -0.3684 0.4171
vn 0.8438 0.2522 0.4737
vn 0.6382 -0.1082 0.7622
vn -0.1870 0.2860 0.9398
vn 0.3252 -0.3651 0.8723
vn 0.8010 -0.3653 0.4744
vn 0.0663 0.3262 0.9430
vn -0.8756 0.3300 0.3528
vn 0.9180 0.3236 0.2291
vn 0.5030 0.3245 -0.8010
vn -0.6063 0.3285 -0.7242
vn -0.7779 0.2785 -0.5633
vn -0.7763 -0.3665 -0.5129
vn -0.9669 0.0816 -0.2420
vn -0.1834 -0.3661 0.9123
vn -0.9523 0.2763 0.1298
vn -0.9255 -0.3682 0.0889
vn 0.2792 0.2559 -0.9255
vn 0.3103 -0.3646 -0.8780
vn -0.0689 -0.1058 -0.9920
vn -0.4020 0.2586 -0.8784
vn -0.4305 -0.3617 -0.8270
vn 0.0685 -0.0714 0.9951
vn -0.1675 0.2842 0.9440
vn -0.2048 -0.3631 0.9090
vn -0.7749 0.2885 0.5624
vn -0.9255 -0.0679 0.3725
vn -0.7310 -0.3594 0.5801
vn 0.9674 -0.0746 0.2420
vn 0.5293 -0.0732 -0.8453
vn 0.6941 0.2760 -0.6649
vn 0.6964 -0.3698 -0.6150
vn 0.9627 0.2706 -0.0019
vn 0.9266 -0.3741 -0.0394
vn -0.6410 -0.0691 -0.7644
vn -0.4179 0.2862 -0.8622
vn -0.3713 -0.3616 -0.8553
vn 0.2971 0.2834 -0.9118
vn 0.2474 -0.3639 -0.8980
vn -0.9250 -0.0735 0.3727
vn -0.9627 0.2474 0.1094
vn -0.9144 -0.3742 0.1545
vn -0.6404 -0.0747 -0.7644
vn -0.7962 0.2493 -0.5513
vn -0.7356 -0.3719 -0.5662
vn -0.9556 0.2736 0.1097
vn -0.9198 -0.3767 0.1100
vn -0.7896 0.2759 -0.5480
vn -0.7618 -0.3744 -0.5287
vn 0.5286 -0.0788 -0.8452
vn -0.4001 0.2883 -0.8699
vn -0.3898 -0.3640 -0.8459
vn 0.2787 0.2855 -0.9170
vn 0.2672 -0.3666 -0.8912
vn 0.7139 0.2467 -0.6554
vn 0.6491 -0.3738 -0.6625
vn 0.9670 -0.0801 0.2419
vn 0.9702 0.2413 -0.0236
vn 0.9247 -0.3798 0.0271
vn 0.7078 0.2734 -0.6514
vn 0.6801 -0.3771 -0.6287
vn 0.9632 0.2679 -0.0222
vn 0.9238 -0.3824 -0.0176
vn 0.0685 -0.0769 0.9947
vn 0.3206 0.2545 0.9124
vn 0.2615 -0.3656 0.8933
vn 0.8386 0.2798 0.4673
vn 0.8087 -0.3717 0.4558
vn 0.3170 0.2837 0.9050
vn 0.3041 -0.3682 0.8786
vn -0.1895 0.2566 0.9478
vn -0.1393 -0.3639 0.9210
vn -0.7677 0.2613 0.5852
vn -0.7691 -0.3588 0.5289
vn -0.0690 -0.0074 -0.9976
vn -0.9648 -0.1048 -0.2413
vn 0.9249 0.0754 -0.3726
vn 0.6422 -0.0097 0.7665
vn 0.9218 -0.1109 -0.3716
vn -0.9701 -0.0072 -0.2427
vn -0.0684 0.0797 -0.9945
vn -0.5279 -0.1041 0.8429
vn -0.5287 0.0814 0.8449
vn 0.9274 -0.0130 -0.3737
vt 0.212248 0.820682
vt 0.504913 0.864008
vt 0.842160 0.800493
s 1
usemtl Low_Poly_Image_Texture.033
f 4/1/1 2/1/2 10/1/3 8/1/4 6/1/5
f 1/1/6 3/1/7 5/1/8 7/1/9 9/1/10
f 9/1/10 15/1/11 11/1/12 1/1/6
f 7/1/9 14/1/13 15/1/11 9/1/10
f 5/1/8 13/1/14 14/1/13 7/1/9
f 3/1/7 12/1/15 13/1/14 5/1/8
f 1/1/6 11/1/12 12/1/15 3/1/7
f 15/1/11 20/1/16 16/1/17 11/1/12
f 14/1/13 19/1/18 20/1/16 15/1/11
f 13/1/14 18/1/19 19/1/18 14/1/13
f 12/1/15 17/1/20 18/1/19 13/1/14
f 11/1/12 16/1/17 17/1/20 12/1/15
f 20/2/16 25/2/21 21/2/22 16/2/17
f 19/2/18 24/2/23 25/2/21 20/2/16
f 18/2/19 23/2/24 24/2/23 19/2/18
f 17/2/20 22/2/25 23/2/24 18/2/19
f 16/2/17 21/2/22 22/2/25 17/2/20
f 25/1/21 30/1/26 26/1/27 21/1/22
f 24/1/23 29/1/28 30/1/26 25/1/21
f 23/1/24 28/1/29 29/1/28 24/1/23
f 22/1/25 27/1/30 28/1/29 23/1/24
f 21/1/22 26/1/27 27/1/30 22/1/25
f 104/3/31 105/3/32 120/3/33
f 51/3/34 52/3/35 107/3/36
f 90/3/37 91/3/38 117/3/39
f 103/3/40 104/3/31 120/3/33
f 53/3/41 50/3/42 107/3/36
f 35/1/43 10/1/3 2/1/2 31/1/44
f 34/1/45 8/1/4 10/1/3 35/1/43
f 33/1/46 6/1/5 8/1/4 34/1/45
f 32/1/47 4/1/1 6/1/5 33/1/46
f 31/1/44 2/1/2 4/1/1 32/1/47
f 64/3/48 65/3/49 110/3/50
f 105/3/32 102/3/51 120/3/33
f 50/3/42 51/3/34 107/3/36
f 63/3/52 64/3/48 110/3/50
f 102/3/51 103/3/40 120/3/33
f 65/3/49 62/3/53 110/3/50
f 76/3/54 77/3/55 113/3/56
f 62/3/53 63/3/52 110/3/50
f 75/3/57 76/3/54 113/3/56
f 77/3/55 74/3/58 113/3/56
f 42/1/59 35/1/43 47/1/60 46/1/61
f 35/1/43 31/1/44 48/1/62 47/1/60
f 31/1/44 45/1/63 49/1/64 48/1/62
f 45/1/63 42/1/59 46/1/61 49/1/64
f 40/1/65 34/1/45 51/1/34 50/1/42
f 34/1/45 35/1/43 52/1/35 51/1/34
f 35/1/43 42/1/59 53/1/41 52/1/35
f 42/1/59 40/1/65 50/1/42 53/1/41
f 38/1/66 33/1/46 55/1/67 54/1/68
f 33/1/46 34/1/45 56/1/69 55/1/67
f 34/1/45 40/1/65 57/1/70 56/1/69
f 40/1/65 38/1/66 54/1/68 57/1/70
f 36/1/71 32/1/47 59/1/72 58/1/73
f 32/1/47 33/1/46 60/1/74 59/1/72
f 33/1/46 38/1/66 61/1/75 60/1/74
f 38/1/66 36/1/71 58/1/73 61/1/75
f 45/1/63 31/1/44 63/1/52 62/1/53
f 31/1/44 32/1/47 64/1/48 63/1/52
f 32/1/47 36/1/71 65/1/49 64/1/48
f 36/1/71 45/1/63 62/1/53 65/1/49
f 26/1/27 44/1/76 67/1/77 66/1/78
f 44/1/76 37/1/79 68/1/80 67/1/77
f 37/1/79 27/1/30 69/1/81 68/1/80
f 27/1/30 26/1/27 66/1/78 69/1/81
f 44/1/76 45/1/63 71/1/82 70/1/83
f 45/1/63 36/1/71 72/1/84 71/1/82
f 36/1/71 37/1/79 73/1/85 72/1/84
f 37/1/79 44/1/76 70/1/83 73/1/85
f 27/1/30 37/1/79 75/1/57 74/1/58
f 37/1/79 39/1/86 76/1/54 75/1/57
f 39/1/86 28/1/29 77/1/55 76/1/54
f 28/1/29 27/1/30 74/1/58 77/1/55
f 37/1/79 36/1/71 79/1/87 78/1/88
f 36/1/71 38/1/66 80/1/89 79/1/87
f 38/1/66 39/1/86 81/1/90 80/1/89
f 39/1/86 37/1/79 78/1/88 81/1/90
f 28/1/29 39/1/86 83/1/91 82/1/92
f 39/1/86 41/1/93 84/1/94 83/1/91
f 41/1/93 29/1/28 85/1/95 84/1/94
f 29/1/28 28/1/29 82/1/92 85/1/95
f 39/1/86 38/1/66 87/1/96 86/1/97
f 38/1/66 40/1/65 88/1/98 87/1/96
f 40/1/65 41/1/93 89/1/99 88/1/98
f 41/1/93 39/1/86 86/1/97 89/1/99
f 29/1/28 41/1/93 91/1/38 90/1/37
f 41/1/93 43/1/100 92/1/101 91/1/38
f 43/1/100 30/1/26 93/1/102 92/1/101
f 30/1/26 29/1/28 90/1/37 93/1/102
f 41/1/93 40/1/65 95/1/103 94/1/104
f 40/1/65 42/1/59 96/1/105 95/1/103
f 42/1/59 43/1/100 97/1/106 96/1/105
f 43/1/100 41/1/93 94/1/104 97/1/106
f 30/1/26 43/1/100 99/1/107 98/1/108
f 43/1/100 44/1/76 100/1/109 99/1/107
f 44/1/76 26/1/27 101/1/110 100/1/109
f 26/1/27 30/1/26 98/1/108 101/1/110
f 43/1/100 42/1/59 103/1/40 102/1/51
f 42/1/59 45/1/63 104/1/31 103/1/40
f 45/1/63 44/1/76 105/1/32 104/1/31
f 44/1/76 43/1/100 102/1/51 105/1/32
f 93/3/102 90/3/37 117/3/39
f 52/3/35 53/3/41 107/3/36
f 91/3/38 92/3/101 117/3/39
f 78/3/88 79/3/87 114/3/111
f 92/3/101 93/3/102 117/3/39
f 81/3/90 78/3/88 114/3/111
f 79/3/87 80/3/89 114/3/111
f 66/3/78 67/3/77 111/3/112
f 80/3/89 81/3/90 114/3/111
f 69/3/81 66/3/78 111/3/112
f 67/3/77 68/3/80 111/3/112
f 54/3/68 55/3/67 108/3/113
f 68/3/80 69/3/81 111/3/112
f 57/3/70 54/3/68 108/3/113
f 94/3/104 95/3/103 118/3/114
f 55/3/67 56/3/69 108/3/113
f 97/3/106 94/3/104 118/3/114
f 56/3/69 57/3/70 108/3/113
f 95/3/103 96/3/105 118/3/114
f 82/3/92 83/3/91 115/3/115
f 96/3/105 97/3/106 118/3/114
f 85/3/95 82/3/92 115/3/115
f 83/3/91 84/3/94 115/3/115
f 70/3/83 71/3/82 112/3/116
f 84/3/94 85/3/95 115/3/115
f 73/3/85 70/3/83 112/3/116
f 71/3/82 72/3/84 112/3/116
f 58/3/73 59/3/72 109/3/117
f 72/3/84 73/3/85 112/3/116
f 61/3/75 58/3/73 109/3/117
f 98/3/108 99/3/107 119/3/118
f 59/3/72 60/3/74 109/3/117
f 46/3/61 47/3/60 106/3/119
f 101/3/110 98/3/108 119/3/118
f 60/3/74 61/3/75 109/3/117
f 49/3/64 46/3/61 106/3/119
f 99/3/107 100/3/109 119/3/118
f 86/3/97 87/3/96 116/3/120
f 47/3/60 48/3/62 106/3/119
f 100/3/109 101/3/110 119/3/118
f 89/3/99 86/3/97 116/3/120
f 48/3/62 49/3/64 106/3/119
f 87/3/96 88/3/98 116/3/120
f 74/3/58 75/3/57 113/3/56
f 88/3/98 89/3/99 116/3/120
